<svg width="18" height="18" viewBox="0 0 18 18" fill="none" xmlns="http://www.w3.org/2000/svg">
<path d="M17.75 8.99996C17.752 9.25631 17.674 9.50691 17.527 9.71693C17.38 9.92695 17.1712 10.086 16.9297 10.1718L11.9734 11.9742L10.1719 16.9296C10.0831 17.1689 9.92319 17.3752 9.7137 17.5209C9.50421 17.6666 9.25515 17.7447 8.99999 17.7447C8.74482 17.7447 8.49576 17.6666 8.28627 17.5209C8.07679 17.3752 7.91691 17.1689 7.82811 16.9296L6.02655 11.9734L1.0703 10.1718C0.831077 10.083 0.624761 9.92315 0.479066 9.71367C0.333372 9.50418 0.25528 9.25512 0.25528 8.99996C0.25528 8.74479 0.333372 8.49573 0.479066 8.28624C0.624761 8.07676 0.831077 7.91688 1.0703 7.82808L6.02655 6.02652L7.82811 1.07027C7.91691 0.831046 8.07679 0.62473 8.28627 0.479036C8.49576 0.333342 8.74482 0.255249 8.99999 0.255249C9.25515 0.255249 9.50421 0.333342 9.7137 0.479036C9.92319 0.62473 10.0831 0.831046 10.1719 1.07027L11.9742 6.02652L16.9297 7.82808C17.1712 7.91396 17.38 8.07296 17.527 8.28298C17.674 8.493 17.752 8.7436 17.75 8.99996Z" fill="#8B57C2"/>
</svg>
