<svg width="85" height="34" viewBox="0 0 85 34" fill="none" xmlns="http://www.w3.org/2000/svg">
<g clip-path="url(#clip0_3_8)">
<mask id="mask0_3_8" style="mask-type:luminance" maskUnits="userSpaceOnUse" x="0" y="0" width="85" height="34">
<path d="M84.5 0H0.5V34H84.5V0Z" fill="white"/>
</mask>
<g mask="url(#mask0_3_8)">
<path d="M8.42726 0.000709598C10.4819 -0.0264598 12.4671 0.727497 13.9647 2.10378V6.16123C13.2928 3.78232 11.141 2.1253 8.42726 2.1253C5.14754 2.1253 2.67179 4.54726 2.67179 7.75568C2.67179 10.9641 5.14754 13.386 8.42726 13.386C10.925 13.386 12.9448 11.9833 13.7707 9.90175H6.25545V7.76936H13.9647V13.3997C12.4671 14.776 10.4819 15.5299 8.42726 15.5028C3.90967 15.5028 0.5 12.177 0.5 7.74785C0.5 3.31867 3.90967 0.000709598 8.42726 0.000709598Z" fill="white"/>
<path d="M15.9205 0.311859H27.6474V2.43645H18.0843V6.68563H27.6394V8.80434H18.0843V13.0535H27.6394V15.1781H15.9205V0.311859Z" fill="white"/>
<path d="M29.6031 0.311859H34.1647L40.984 15.1801V0.311859H43.1559V15.1801H38.5943L31.775 0.311859V15.1801H29.6031V0.311859Z" fill="white"/>
<path d="M44.682 13.0594H50.2216V2.43645H44.682V0.311859H57.9306V2.43645H52.3874V13.0594H57.9245V15.184H44.682V13.0594Z" fill="white"/>
<path d="M59.0105 8.21744V0.313818H61.1819V8.2605C61.1819 11.2772 63.4859 13.4859 66.5696 13.4859C69.6094 13.4859 72.043 11.2772 72.043 8.2605V0.311859H74.2149V8.21744C74.2149 12.4021 70.8274 15.6105 66.5696 15.6105C65.573 15.6244 64.5839 15.4428 63.6603 15.0762C62.7371 14.7096 61.898 14.1656 61.1932 13.4763C60.4885 12.787 59.932 11.9665 59.5573 11.0632C59.1825 10.16 58.9963 9.19226 59.0105 8.21744Z" fill="white"/>
<path d="M75.1929 14.1432V10.254C75.4086 12.0831 77.2986 13.3039 79.0783 13.3039C80.3581 13.3039 81.7062 12.6016 81.7062 11.1989C81.7062 8.20372 75.1909 9.0332 75.1909 4.37908C75.1909 1.68126 77.3406 0.0868378 79.9684 0.0868378C81.188 0.0774985 82.3778 0.458057 83.3559 1.17065V5.08335C83.156 3.36372 81.7284 2.21534 79.9902 2.21534C78.7084 2.21534 77.3624 2.80224 77.3624 4.25581C77.3624 7.38594 83.8781 6.78339 83.8781 11.2674C83.8781 13.9436 81.6621 15.4324 79.1006 15.4324C77.6879 15.4383 76.3132 14.9848 75.1929 14.1432Z" fill="white"/>
<path d="M76.8887 19.1084H52.2872C48.0836 19.1084 44.6759 22.442 44.6759 26.5542C44.6759 30.6665 48.0836 34.0001 52.2872 34.0001H76.8887C81.0923 34.0001 84.5 30.6665 84.5 26.5542C84.5 22.442 81.0923 19.1084 76.8887 19.1084Z" fill="#FF3900"/>
<path d="M49.6113 27.4659V27.4033H50.4812V27.4659C50.4812 27.9041 51.0555 28.1154 52.2254 28.1154C53.2573 28.1154 53.8069 27.9197 53.8069 27.5539V27.4913C53.8069 27.2018 53.5093 27.0785 52.6652 26.9905L51.6314 26.8848C50.3552 26.7538 49.7894 26.4016 49.7894 25.6973V25.6093C49.7894 24.8013 50.6876 24.3181 52.1891 24.3181C53.7451 24.3181 54.6711 24.8444 54.6711 25.7247V25.7854H53.817V25.7247C53.817 25.3021 53.2593 25.0733 52.1531 25.0733C51.2093 25.0733 50.6714 25.2689 50.6714 25.5917V25.6543C50.6714 25.9438 50.9412 26.0847 51.6334 26.1473L52.6834 26.2431C54.0831 26.3742 54.6828 26.744 54.6828 27.4737V27.5618C54.6828 28.3795 53.739 28.8803 52.1931 28.8803C50.5894 28.8803 49.6113 28.3443 49.6113 27.4659Z" fill="white"/>
<path d="M61.2045 26.5249V26.6658C61.2045 28.0098 60.1707 28.8804 58.5525 28.8804C57.9374 28.8968 57.3381 28.6875 56.8729 28.2934V30.2635H56.009V24.4238H56.8086L56.845 24.9246C57.3179 24.5229 57.9265 24.3068 58.5525 24.3181C60.1707 24.3181 61.2045 25.1789 61.2045 26.5249ZM60.3144 26.5249C60.3144 25.6269 59.6404 25.0909 58.5448 25.0909C57.8348 25.0909 57.2048 25.355 56.8729 25.7776V27.4131C57.2048 27.8337 57.8348 28.1076 58.5448 28.1076C59.6404 28.1076 60.3144 27.5617 60.3144 26.6658V26.5249Z" fill="white"/>
<path d="M68.0154 28.0274V28.7747H67.4157C66.8156 28.7747 66.4158 28.5458 66.2655 28.133C65.7898 28.6436 65.1259 28.8804 64.218 28.8804C62.9322 28.8804 62.2182 28.4225 62.2182 27.6048C62.2182 26.9103 62.7662 26.4721 63.8077 26.3665L66.2078 26.12C66.1719 25.4607 65.6416 25.1183 64.6518 25.1183C63.6999 25.1183 63.0982 25.4607 63.0982 25.9889V26.0202H62.244V25.985C62.244 24.9814 63.206 24.3142 64.6619 24.3142C66.1795 24.3142 67.0615 25.0087 67.0615 26.1865V27.5402C67.0615 27.8474 67.2614 28.0235 67.6176 28.0235L68.0154 28.0274ZM66.2159 27.2722V26.8027L64.004 27.0297C63.376 27.0922 63.08 27.2762 63.08 27.6009C63.08 27.9257 63.4661 28.1291 64.212 28.1291C65.176 28.133 65.8956 27.8161 66.2098 27.2722H66.2159Z" fill="white"/>
<path d="M68.4798 26.6912V26.5327C68.4798 25.1633 69.5036 24.3181 71.1315 24.3181C72.6051 24.3181 73.683 25.1007 73.683 26.1903V26.2256H72.7933V26.1903C72.7933 25.5486 72.1011 25.0909 71.1315 25.0909C70.0253 25.0909 69.3695 25.6269 69.3695 26.5425V26.6833C69.3695 27.5696 70.0253 28.1075 71.1315 28.1075C72.1092 28.1075 72.7933 27.6498 72.7933 27.0159V26.9807H73.6793V27.0159C73.6793 28.1154 72.6374 28.8803 71.1274 28.8803C69.5177 28.8803 68.4798 28.0274 68.4798 26.6912Z" fill="white"/>
<path d="M79.6906 26.8769H75.403C75.4571 27.6399 76.1049 28.1075 77.1286 28.1075C78.0809 28.1075 78.7287 27.7632 78.7646 27.2545H79.6906C79.5905 28.2738 78.6386 28.8802 77.1286 28.8802C75.529 28.8802 74.5048 28.037 74.5048 26.7009V26.5052C74.5048 25.1612 75.5209 24.3083 77.1286 24.3083C78.7367 24.3083 79.6906 25.126 79.6906 26.47V26.8769ZM75.4207 26.1726H78.7727C78.6665 25.4958 78.0627 25.0908 77.1286 25.0908C76.1949 25.0908 75.5467 25.4958 75.4207 26.1726Z" fill="white"/>
<path d="M46.5691 25.1648C46.5049 25.1657 46.4407 25.17 46.3765 25.1697C46.1786 25.1684 45.9815 25.1616 45.7845 25.1494C45.5878 25.1372 45.3911 25.1194 45.1952 25.0971C44.9994 25.0748 44.8043 25.0479 44.6097 25.0165C44.415 24.9851 44.2208 24.9495 44.0273 24.9101C43.8339 24.8706 43.6412 24.8274 43.449 24.7809C43.2568 24.7343 43.0654 24.6846 42.8752 24.632C42.6845 24.5794 42.4943 24.5241 42.3053 24.4665C42.1167 24.4089 41.9289 24.3491 41.7416 24.2875C41.3676 24.1642 40.994 24.033 40.6211 23.8987C40.2481 23.7643 39.8754 23.6266 39.5025 23.4889C39.1296 23.3513 38.7565 23.2137 38.3826 23.0805C38.0087 22.9472 37.6342 22.8178 37.2583 22.6966C37.0702 22.636 36.8819 22.5773 36.6932 22.5212C36.5044 22.4651 36.3152 22.412 36.1256 22.3613C35.936 22.3106 35.7461 22.2628 35.5554 22.2186C35.3648 22.1743 35.1732 22.1331 34.9815 22.0961C34.7897 22.0592 34.5973 22.0263 34.4042 21.9977C34.2112 21.9691 34.0177 21.945 33.8232 21.9257C33.6288 21.9064 33.4338 21.8923 33.2378 21.8833C33.0417 21.8743 32.8449 21.8706 32.6472 21.8728C32.4436 21.875 32.2403 21.8842 32.0374 21.8993C31.8345 21.9143 31.6317 21.9356 31.4302 21.9633C31.2288 21.9909 31.028 22.0248 30.8288 22.0648C30.6295 22.1048 30.4318 22.151 30.2357 22.2032C30.0394 22.2553 29.8451 22.3132 29.6527 22.3773C29.6107 22.3913 29.57 22.4089 29.5282 22.4234C30.3051 24.8406 32.3945 27.3437 36.1294 30.4143C37.4704 31.5167 38.6417 32.4186 38.7325 32.4186C39.1746 32.4186 42.6082 29.5974 44.3516 27.8015C45.2272 26.9001 45.9654 26.0188 46.5691 25.1648Z" fill="#FECB00"/>
<path d="M33.7589 15.4188C32.879 15.4261 32.0205 15.6165 31.3754 16.0069C29.7093 17.0154 29.1479 18.1074 29.174 20.2887C29.1825 21.001 29.2985 21.7086 29.5283 22.4235C29.5701 22.4089 29.6108 22.3913 29.6528 22.3773C29.8452 22.3132 30.0395 22.2554 30.2358 22.2032C30.432 22.1511 30.6297 22.1048 30.8289 22.0648C31.0282 22.0248 31.2288 21.991 31.4303 21.9633C31.6318 21.9356 31.8346 21.9144 32.0376 21.8993C32.2404 21.8842 32.4437 21.8752 32.6473 21.8729C32.845 21.8706 33.0419 21.8744 33.2379 21.8833C33.4339 21.8923 33.6289 21.9065 33.8234 21.9258C34.0178 21.945 34.2113 21.9692 34.4044 21.9977C34.5974 22.0263 34.7898 22.0593 34.9815 22.0962C35.1733 22.1331 35.3649 22.1743 35.5555 22.2186C35.7461 22.2629 35.9361 22.3106 36.1257 22.3613C36.3153 22.412 36.5046 22.4651 36.6933 22.5213C36.882 22.5774 37.0704 22.636 37.2584 22.6966C37.6344 22.8178 38.0088 22.9472 38.3827 23.0805C38.7566 23.2138 39.1297 23.3513 39.5026 23.489C39.8755 23.6267 40.2482 23.7644 40.6212 23.8987C40.9941 24.033 41.3676 24.1643 41.7416 24.2875C41.929 24.3491 42.1168 24.4089 42.3054 24.4665C42.4944 24.5241 42.6846 24.5795 42.8752 24.632C43.0654 24.6846 43.2568 24.7344 43.4491 24.7809C43.6409 24.8274 43.8339 24.8706 44.0274 24.9101C44.2208 24.9495 44.4151 24.9851 44.6097 25.0165C44.8044 25.0479 44.9994 25.0748 45.1953 25.0971C45.3912 25.1194 45.5878 25.1372 45.7845 25.1494C45.9816 25.1616 46.1787 25.1686 46.3766 25.1697C46.4408 25.17 46.505 25.1658 46.5692 25.1648C49.0532 21.6523 49.2317 18.6027 46.9815 16.5256C46.2166 15.8194 45.6161 15.5895 44.2495 15.4803C42.114 15.3097 40.7347 15.9095 39.6903 17.4631C38.8586 18.7004 38.5919 18.8019 38.3227 17.9848C38.2186 17.6688 37.694 17.0048 37.1568 16.509C36.3767 15.7888 35.0448 15.408 33.7589 15.4188Z" fill="#0068C2"/>
<path opacity="0.217903" d="M41.1313 30.0021C45.3289 25.7027 46.9152 23.0356 46.9205 20.2678C46.9241 18.0701 46.2255 16.8397 44.5317 16.064L43.1643 15.4376L44.5899 15.591C47.2117 15.8731 48.8739 18.3593 48.3828 21.2639C48.0125 23.4541 46.5808 25.5838 43.4522 28.5998C39.8282 32.0932 38.0278 33.181 41.1313 30.0021ZM37.023 18.2894C36.3403 17.0971 35.7675 16.5481 34.7347 16.0964C33.3947 15.5102 33.3838 15.4936 34.3379 15.4881C36.1665 15.4774 38.9333 17.868 38.6727 19.2336C38.4952 20.1643 37.9024 19.825 37.023 18.2894Z" fill="white"/>
<path opacity="0.367623" d="M32.7259 16.8682C32.3249 16.8658 31.8964 17.1107 31.3761 17.612C29.9235 18.8739 30.7962 23.8893 31.4446 20.7017C31.5645 20.176 32.3597 19.4448 32.8747 19.0779C34.0662 18.2291 34.27 17.9253 33.6421 17.3204C33.3328 17.0223 33.0377 16.8703 32.7259 16.8682ZM42.4435 16.9377C41.8748 16.9341 41.2739 17.3484 40.8677 18.1054C40.2278 19.2978 40.5884 19.3585 41.5255 19.3585C41.9649 19.3585 42.3918 19.0129 42.8962 18.5907C43.7471 17.8784 43.7749 17.7857 43.2778 17.2988C43.0303 17.0564 42.7411 16.9397 42.4435 16.9377Z" fill="white"/>
</g>
</g>
<defs>
<clipPath id="clip0_3_8">
<rect width="84" height="34" fill="white" transform="translate(0.5)"/>
</clipPath>
</defs>
</svg>
